<svg xmlns="http://www.w3.org/2000/svg" xmlns:xlink="http://www.w3.org/1999/xlink" viewBox="0 0 935.14 185.55"><defs><style>.cls-1{font-size:17.41px;font-family:ArialNova-Light, Arial Nova;font-weight:300;letter-spacing:0.07em;}.cls-1,.cls-11{fill:#f15a24;}.cls-2{letter-spacing:0.03em;}.cls-3{letter-spacing:0.08em;}.cls-4{letter-spacing:0.11em;}.cls-5{letter-spacing:0.08em;}.cls-6,.cls-7{font-size:75.16px;fill:#4d4d4d;letter-spacing:0.08em;}.cls-6{font-family:UDDigiKyokashoNP-B, UD Digi Kyokasho NP-B;}.cls-7{font-family:UDDigiKyokashoNP-R, UD Digi Kyokasho NP-R;}.cls-8{fill:url(#radial-gradient);}.cls-9{fill:#f7931e;}.cls-10{fill:url(#linear-gradient);}.cls-12{fill:url(#radial-gradient-2);}.cls-13{fill:none;}</style><radialGradient id="radial-gradient" cx="68.11" cy="12.1" r="23.2" gradientUnits="userSpaceOnUse"><stop offset="0.03" stop-color="#fff"/><stop offset="0.05" stop-color="#ffedd8"/><stop offset="0.08" stop-color="#ffd5a7"/><stop offset="0.12" stop-color="#ffc17d"/><stop offset="0.15" stop-color="#ffb05b"/><stop offset="0.18" stop-color="#ffa340"/><stop offset="0.21" stop-color="#ff9a2d"/><stop offset="0.24" stop-color="#ff9522"/><stop offset="0.28" stop-color="#ff931e"/><stop offset="0.71" stop-color="#714314"/></radialGradient><linearGradient id="linear-gradient" x1="99.65" y1="100.31" x2="74.36" y2="74.3" gradientUnits="userSpaceOnUse"><stop offset="0.21" stop-color="#ef6329"/><stop offset="0.62" stop-color="#b24c2d"/><stop offset="0.95" stop-color="#5e2412"/></linearGradient><radialGradient id="radial-gradient-2" cx="68.11" cy="76.69" fx="34.32331852782789" fy="92.08555136398635" r="86" gradientUnits="userSpaceOnUse"><stop offset="0.18" stop-color="#fff"/><stop offset="0.24" stop-color="#dadada"/><stop offset="0.34" stop-color="#aaa9a9"/><stop offset="0.44" stop-color="#817e7f"/><stop offset="0.54" stop-color="#5f5c5d"/><stop offset="0.64" stop-color="#444142"/><stop offset="0.74" stop-color="#322e2f"/><stop offset="0.85" stop-color="#272324"/><stop offset="0.96" stop-color="#231f20"/></radialGradient></defs><g id="Layer_2" data-name="Layer 2"><g id="Layer_1-2" data-name="Layer 1"><text class="cls-1" transform="translate(347.43 134.17) scale(1.92 1)">MAKING <tspan class="cls-2" x="79.19" y="0">Y</tspan><tspan class="cls-3" x="90.08" y="0">OUR VISION A REALI</tspan><tspan class="cls-4" x="276.05" y="0">T</tspan><tspan class="cls-5" x="287.64" y="0">Y</tspan></text><text class="cls-6" transform="translate(180.46 107.37)">ALPHA</text><text class="cls-7" transform="translate(492.72 107.37)">GRAPHIKS</text><path class="cls-8" d="M80.21,12.1v0a1.93,1.93,0,0,1,0,.24c0,.29,0,.57,0,.86l0,.18a12.09,12.09,0,0,1-24,0c0-.06,0-.12,0-.18,0-.29,0-.57-.05-.86V12.1a12.1,12.1,0,1,1,24.2,0Z"/><path class="cls-9" d="M89.78,56.89c-16.24,5.76-20.91,25-21.24,26.51l0,.09L57.44,115a51.83,51.83,0,0,1-26-13.12L35.86,89v0a0,0,0,0,1,0,0l2.29-6.67h0c3.24-8.06,10.09-21,20.81-24.87Z"/><path class="cls-10" d="M104.79,99.54a51.85,51.85,0,0,1-25.42,14.85L68.52,83.49l0-.09c.41-1.56,5.85-22,22.76-26.61Z"/><path class="cls-9" d="M47.89,141.86,30,182.88H0l22.18-54.73A58.54,58.54,0,0,0,47.89,141.86Z"/><path class="cls-11" d="M138,185.55h-30l-18.13-41.8A58.62,58.62,0,0,0,115,128.51Z"/><path class="cls-12" d="M131.68,75.67a63.57,63.57,0,1,1-79.6-61.54c0,.11,0,.21,0,.32a56.32,56.32,0,1,0,32.05,0v-.32A63.59,63.59,0,0,1,131.68,75.67Z"/><path class="cls-13" d="M35.88,88.94a61,61,0,0,1,2.29-6.67"/></g></g></svg>